<?xml version="1.0" encoding="UTF-8"?>
<!DOCTYPE svg PUBLIC "-//W3C//DTD SVG 1.1//EN" "http://www.w3.org/Graphics/SVG/1.1/DTD/svg11.dtd">
<!-- Creator: CorelDRAW 2017 -->
<svg xmlns="http://www.w3.org/2000/svg" xml:space="preserve" width="374px" height="603px" version="1.1" style="shape-rendering:geometricPrecision; text-rendering:geometricPrecision; image-rendering:optimizeQuality; fill-rule:evenodd; clip-rule:evenodd"
viewBox="0 0 45.22 72.8"
 xmlns:xlink="http://www.w3.org/1999/xlink">
 <defs>
  <style type="text/css">
   <![CDATA[
    .fil1 {fill:#FECC00}
    .fil4 {fill:black}
    .fil2 {fill:#880F0B}
    .fil0 {fill:#990000}
    .fil3 {fill:white}
    .fil5 {fill:white;fill-rule:nonzero}
    .fnt1 {font-weight:bold;font-size:2.67px;font-family:'Malgun Gothic'}
    .fnt0 {font-weight:bold;font-size:3.09px;font-family:'Tahoma'}
   ]]>
  </style>
 </defs>
 <g id="Capa_x0020_1">
  <metadata id="CorelCorpID_0Corel-Layer"/>
  <g id="_2370097772848">
   <path class="fil0" d="M41.39 3.75l-0.32 58.96 -18.58 10.08 0 0.01 0 0 -0.01 0 0 -0.01 -18.58 -10.08 -0.32 -58.96c12.6,0 25.21,0 37.81,0z"/>
   <path class="fil1" d="M38.4 6.91l-0.27 53.92 -15.58 7.87 -15.71 -7.87 -0.27 -53.92c10.61,0 21.22,0 31.83,0zm-0.55 0.49l-0.26 52.95 -15.05 7.51 -15.22 -7.59 -0.09 -52.79 30.62 -0.08z"/>
   <polygon class="fil2" points="2.51,3.78 0,3.78 0,60.76 2.51,62.13 "/>
   <polygon class="fil2" points="42.5,3.78 45.01,3.78 45.01,60.76 42.5,62.13 "/>
   <path id="Amaxac" class="fil3" d="M24.52 15.81l0 -0.01c0.01,-0.05 0.02,0 0.11,0 0.04,0.01 0.08,0.01 0.12,0.03 0.06,0.02 0.12,0.04 0.19,0.05 0.03,0.01 0.06,0.01 0.09,0.01 0.05,0.01 0.1,0.02 0.15,0.06l0.02 -0.03 -0.01 0.03 0 0c0.05,0 0.09,0.01 0.14,0.03 0.02,0.01 0.04,0.03 0.06,0.04 0.03,0.03 0.04,0.04 0.08,0.05 0.05,0.01 0.09,0.01 0.14,0.01 0,0.02 0,0.04 0,0.07 0,0.02 0.01,0.03 0.02,0.05 0.03,0.04 0.05,0.04 0.09,0.07 0.03,0.01 0.05,0.03 0.08,0.06 0.03,0.02 0.05,0.05 0.07,0.09 0.02,0.03 0.02,0.06 0.03,0.09 0,0.03 0.01,0.05 0.02,0.07 0.01,0.02 0.03,0.03 0.05,0.04 0.03,0 0.06,-0.03 0.08,-0.05 0.02,-0.01 0.04,-0.03 0.06,-0.04 0.04,-0.03 0.1,-0.05 0.14,-0.06l0 -0.18c0.07,-0.03 0.12,-0.07 0.17,-0.11 0.05,-0.04 0.11,-0.06 0.17,-0.08 0.06,-0.01 0.11,-0.05 0.16,-0.08 0.04,-0.02 0.07,-0.02 0.11,-0.03 0.06,0 0.14,-0.09 0.19,-0.15 0.04,-0.04 0.12,-0.03 0.17,-0.04 -0.07,-0.07 -0.13,-0.13 -0.2,-0.19 -0.04,-0.03 -0.07,-0.06 -0.1,-0.09 -0.02,-0.02 -0.04,-0.03 -0.06,-0.03 0.01,0 0.01,0 0.02,0 -0.03,-0.05 -0.01,-0.1 0.04,-0.13 0.01,0.01 0.02,0.01 0.03,0.01 0.05,0 0.08,0.01 0.13,-0.03 0.03,-0.02 0.06,-0.05 0.08,-0.08 0.02,-0.02 0.03,-0.05 0.03,-0.09 0.01,-0.03 0.03,-0.05 0.05,-0.09 0.04,-0.04 0.06,-0.07 0.08,-0.13 0.01,-0.05 0.03,-0.1 0.05,-0.14 0,0 0,0.01 0,0.01 0.02,0.02 0.08,0.02 0.12,0.02 0.03,0 0.05,0 0.08,0.01 0.04,0.01 0.09,0.01 0.14,0.01 0.04,0 0.07,0.03 0.1,0.06 0.03,0.02 0.05,0.04 0.08,0.06 0.02,0.02 0.05,0.02 0.07,0.02 0.04,0 0.04,0.03 0.04,0.05 0,0.03 -0.03,0.05 -0.05,0.07 -0.02,0.02 -0.04,0.05 -0.06,0.08 -0.03,0.04 -0.02,0.06 0.01,0.08 0.03,0.03 0.08,0.01 0.11,0 0.06,-0.02 0.1,-0.05 0.16,-0.08 0.04,-0.02 0.1,-0.01 0.15,-0.01 0.05,0 0.09,0.02 0.13,0.04 0.02,0.02 0.04,0.02 0.07,0.01 0.03,-0.01 0.03,-0.03 0.02,-0.05 -0.03,-0.17 0,-0.17 0.1,-0.29 0.04,-0.04 0.07,-0.07 0.13,-0.09 0.04,-0.01 0.08,-0.01 0.13,-0.01 0.07,0 0.11,0.03 0.17,0.07l0 -0.01c0.04,0.02 0.07,0.02 0.11,0.01 0.04,0 0.07,0 0.1,-0.03 0.03,-0.01 0.03,-0.03 0.05,-0.07l0.02 -0.04c0.01,-0.03 0.03,-0.03 0.06,-0.03 0.03,0 0.05,0.01 0.08,0.02 0.05,0.01 0.04,-0.01 0.09,-0.03 0.06,-0.03 0.12,-0.02 0.2,0 0.03,0 0.03,-0.02 0.05,-0.05 0.02,-0.04 0.04,-0.08 0.07,-0.12 0.01,-0.02 0.03,-0.04 0.05,-0.07 0.03,-0.03 0.02,-0.1 0.02,-0.15 0,-0.02 -0.02,-0.03 -0.05,-0.03 -0.04,-0.02 -0.04,-0.07 -0.03,-0.1 0,-0.03 0.03,-0.04 0.05,-0.06 0.02,-0.02 0.03,-0.07 0.02,-0.1 -0.01,-0.05 -0.02,-0.04 -0.07,-0.05 -0.04,-0.01 -0.08,0.01 -0.12,0.02 -0.02,0.01 -0.05,0.02 -0.07,0.02 -0.04,0.01 -0.04,-0.02 -0.05,-0.05 -0.02,-0.03 -0.06,-0.03 -0.09,-0.04 -0.04,0 -0.08,-0.02 -0.12,-0.03 -0.02,-0.01 -0.03,-0.03 -0.04,-0.05 -0.01,-0.03 -0.02,-0.06 -0.03,-0.09 -0.02,-0.05 -0.03,-0.08 -0.06,-0.12 -0.02,-0.04 -0.06,-0.03 -0.1,-0.03 -0.03,0 -0.04,-0.01 -0.06,-0.03 -0.05,-0.03 -0.11,-0.02 -0.15,0 -0.01,0.01 -0.03,0.02 -0.05,0.04 -0.01,-0.01 -0.04,0.01 -0.06,0.02 -0.04,0.02 -0.08,0.01 -0.12,0l-0.14 -0.02 -0.03 0c0,-0.03 0,-0.06 -0.01,-0.11 -0.05,-0.11 -0.08,-0.12 -0.18,-0.19 -0.04,-0.03 -0.14,-0.09 -0.15,-0.13 0,-0.04 -0.01,-0.06 0.02,-0.1 0.05,-0.05 0.1,-0.11 0.12,-0.17 0.03,-0.09 0.02,-0.14 -0.01,-0.26 -0.04,-0.11 -0.07,-0.14 -0.16,-0.21 -0.05,-0.04 -0.1,-0.07 -0.15,-0.13 -0.02,-0.02 -0.04,-0.05 -0.07,-0.07 -0.03,-0.03 -0.06,-0.06 -0.1,-0.08 -0.04,-0.02 -0.09,-0.04 -0.14,-0.04 -0.05,0.01 -0.1,0.01 -0.15,0.03 -0.05,0.01 -0.11,0.04 -0.14,0.07 -0.01,0.03 -0.03,0.05 -0.03,0.08 -0.01,0.05 0,0.08 -0.05,0.1 -0.06,0.03 -0.11,0.07 -0.17,0.07 -0.06,0 -0.12,-0.01 -0.18,-0.03l0.01 0c-0.03,-0.06 -0.05,-0.12 -0.09,-0.17 -0.05,-0.05 -0.09,-0.08 -0.15,-0.1 -0.06,-0.02 -0.08,-0.03 -0.1,-0.07 -0.03,-0.05 -0.03,-0.05 -0.08,-0.08 -0.06,-0.02 -0.08,-0.04 -0.11,-0.09 -0.02,-0.06 -0.02,-0.1 0.02,-0.13 0.02,-0.02 0.05,-0.03 0.07,-0.03 0.06,-0.02 0.09,-0.06 0.13,-0.11 0,-0.08 0,-0.11 -0.02,-0.18 0,-0.01 0,-0.02 0,-0.03l-0.01 -0.15c-0.01,-0.05 -0.05,-0.09 -0.08,-0.13 -0.03,-0.04 -0.03,-0.06 -0.09,-0.07 -0.07,-0.01 -0.14,-0.03 -0.2,-0.06 -0.06,-0.03 -0.14,-0.07 -0.16,-0.1 -0.03,-0.06 -0.06,-0.15 -0.12,-0.13 -0.03,0.01 -0.07,0.02 -0.1,0.02 -0.08,0.02 -0.15,0.03 -0.23,0.04 -0.04,0.01 -0.06,0 -0.1,-0.02 -0.04,-0.03 -0.07,-0.08 -0.1,-0.13 -0.02,-0.04 -0.03,-0.07 -0.06,-0.11 0.01,0.05 0,0.1 -0.01,0.14 0.02,-0.07 0.02,-0.16 -0.01,-0.2 -0.03,-0.03 -0.06,-0.06 -0.07,-0.09 -0.01,-0.04 0,-0.08 0.01,-0.13 0.01,-0.04 0.01,-0.06 0,-0.1 -0.02,-0.02 -0.04,-0.05 -0.08,-0.06 -0.07,-0.03 -0.14,-0.02 -0.17,-0.03 -0.03,-0.02 -0.03,-0.03 0.02,-0.06 0.03,-0.02 0.05,-0.03 0.03,-0.07 -0.02,-0.04 -0.06,-0.08 -0.13,-0.1 -0.03,-0.01 -0.03,-0.01 -0.05,-0.04 -0.04,-0.04 -0.05,-0.07 -0.11,-0.11 -0.05,-0.03 -0.09,-0.06 -0.13,-0.08 -0.06,-0.03 -0.13,-0.04 -0.2,-0.04 -0.03,0 -0.04,0.01 -0.07,-0.01 -0.02,-0.02 -0.03,-0.04 -0.03,-0.07 -0.01,-0.04 0,-0.05 -0.03,-0.08 -0.02,-0.01 -0.03,-0.03 -0.04,-0.07 0,-0.05 -0.01,-0.09 -0.05,-0.13 -0.04,-0.06 -0.08,-0.11 -0.12,-0.16 -0.07,-0.12 -0.03,-0.18 -0.08,-0.22 -0.04,-0.03 -0.06,-0.04 -0.11,-0.01 -0.04,0.02 -0.09,0.05 -0.11,0.11 -0.02,0.06 -0.05,0.13 -0.05,0.19 0,0.07 0.01,0.15 -0.04,0.19 -0.02,0.02 -0.04,0.03 -0.06,0.05 -0.03,0.03 -0.11,0.08 -0.15,0.07 -0.03,0 -0.06,-0.01 -0.09,0.01 -0.03,0.02 -0.04,0.05 -0.08,0.04 -0.06,-0.01 -0.1,-0.02 -0.17,-0.02 -0.09,0.01 -0.2,0.01 -0.26,0.05 -0.04,0.03 -0.08,0.06 -0.12,0.09 -0.06,0.04 -0.11,0.09 -0.17,0.09 -0.06,-0.01 -0.11,-0.01 -0.17,-0.02 -0.04,0 -0.1,0.01 -0.14,0.05 -0.03,0.02 -0.06,0.04 -0.08,0.01 -0.03,-0.03 -0.06,-0.06 -0.09,-0.08 -0.05,-0.04 -0.09,-0.07 -0.15,-0.1 -0.03,-0.02 -0.06,-0.05 -0.1,-0.05 -0.07,-0.01 -0.11,0.02 -0.15,0.06 -0.07,0.05 -0.09,0.1 -0.15,0.04 -0.07,-0.06 -0.13,-0.14 -0.15,-0.22 -0.02,-0.06 -0.02,-0.13 -0.06,-0.18 -0.04,-0.03 -0.1,-0.05 -0.23,-0.08 -0.15,-0.03 -0.28,-0.08 -0.44,-0.15 -0.08,-0.04 -0.18,-0.09 -0.26,-0.08 -0.07,0.02 -0.14,0.03 -0.2,0.07 -0.06,0.06 -0.09,0.07 -0.07,0.16 0.01,0.05 0,0.11 -0.01,0.17 0,0.1 0.06,0.19 0.06,0.29l0 0.15c-0.04,0.06 -0.07,0.05 -0.08,0.13 -0.03,0.13 -0.09,0.17 -0.21,0.3 -0.11,0.13 -0.22,0.26 -0.34,0.38l0 0c-0.09,-0.05 -0.23,-0.08 -0.33,-0.07l0 0c-0.09,0.01 -0.15,0.01 -0.25,0.02 -0.12,-0.01 -0.19,-0.02 -0.3,-0.05 -0.07,-0.02 -0.1,0.03 -0.17,0.04 -0.06,0 -0.1,-0.01 -0.15,-0.01 -0.05,-0.01 -0.07,0 -0.11,0.02 -0.04,0.03 -0.06,0.06 -0.09,0.09l0 0c-0.08,0.05 -0.1,0.05 -0.2,0.07 -0.17,-0.01 -0.15,-0.03 -0.24,-0.16 -0.03,-0.11 -0.04,-0.14 -0.11,-0.23 -0.1,-0.09 -0.09,-0.1 -0.23,-0.1l-0.09 0.01c-0.13,-0.01 -0.22,-0.01 -0.32,0.01 -0.06,0.05 -0.08,0.15 -0.13,0.21l-0.07 0.07 -0.08 0.09c-0.14,0.13 -0.26,0.11 -0.45,0.1 -0.11,-0.03 -0.17,-0.03 -0.29,-0.04 -0.09,0.04 -0.1,0.03 -0.2,0 -0.13,-0.08 -0.27,-0.12 -0.42,-0.14 -0.12,-0.04 -0.11,-0.12 -0.13,0.02l-0.02 0.05c0.02,0.04 0.04,0.09 0.07,0.12l0.08 0.05 0.07 0.06c0.03,0.03 0.04,0.07 0.02,0.11 -0.01,0.03 -0.01,0.03 -0.04,0.06 -0.05,0.04 -0.08,0.07 -0.1,0.12 -0.06,0.08 -0.16,0.09 -0.12,0.18l0.16 0.2c0.03,0.02 0.06,0.03 0.09,0.04 0.08,0.02 0.02,0.07 -0.02,0.1 -0.03,0.03 -0.06,0.06 -0.08,0.1 -0.02,0.04 -0.02,0.03 0,0.07l0.05 0.06 0.1 0.08 0.11 0.07 0.01 0.19c0.05,0.21 0.12,0.34 0.28,0.49 0.05,0.03 0.08,0.03 0.09,-0.07l0.13 0c0.03,-0.04 0.04,-0.06 0.06,-0.1 -0.01,0.01 -0.01,0.01 -0.01,0.02 0.03,-0.02 0.06,-0.03 0.07,-0.04 0.06,-0.07 0.06,-0.11 0.16,-0.12 0.13,0 0.17,0 0.28,0.06 0.07,0.01 0.13,0.01 0.2,0.02 0.06,0 0.06,-0.01 0.08,0.04l0.01 0.04c0.02,0.04 0.02,0.05 0.08,0.05 0.03,0 0.07,0 0.11,0 0.04,-0.01 0.05,-0.01 0.08,0.01 0.08,0.02 0.11,0.01 0.17,-0.08l0.07 0 -0.01 0c0.03,0.04 0.04,0.07 0.04,0.12 0.01,0.03 0.01,0.05 0.02,0.08 0.01,0.07 0.02,0.07 0.1,0.1 0.05,0.03 0.05,0.02 0.07,0.07 0.01,0.04 0.02,0.07 0.03,0.11l0 0c0,0.02 0,0.05 -0.01,0.07 0,0.13 0.01,0.17 0.07,0.3 0.04,0.09 0.07,0.14 0.15,0.19 0.06,0.04 0.09,0.05 0.19,0.06 0.05,0 0.08,0 0.1,0.01l0.06 0.09c0.08,0.1 0.13,0.15 0.25,0.2 0.06,0.04 0.08,0.05 0.1,0.12 0.03,0.09 0.04,0.12 0.03,0.18 -0.01,0.07 -0.02,0.13 -0.02,0.2l-0.01 0.1c0.01,0.06 0.04,0.05 0.1,0.02 0.06,-0.03 0.08,-0.04 0.11,-0.01 0.04,0.04 0.07,0.03 0.14,0.04l0.09 0c0.01,0 0.03,0 0.04,0l0 0.2c-0.01,0.07 0,0.1 0.02,0.15 0.02,0.06 0.06,0.1 0.1,0.14l0.11 0.1c0.09,0.1 0.18,0.19 0.26,0.28 0.02,0.02 0.03,0.03 0.05,0.04l0.02 0.05c0.04,0.03 0.07,0.06 0.1,0.09 0.05,0.05 0.05,0.11 0.05,0.16 0.01,0.06 0.05,0.08 0.09,0.12 0.1,0.09 0.2,0.19 0.31,0.28 0.06,0.04 0.08,0.05 0.08,0.08 0.01,0.05 -0.02,0.11 -0.04,0.17 -0.01,0.04 -0.02,0.06 -0.01,0.07 0.02,0.02 0.05,0.02 0.08,0.02 0.04,0 0.06,0.04 0.09,0.07 0.04,0.06 0.08,-0.02 0.12,-0.08 0.03,-0.05 0.06,-0.03 0.1,0 0.04,0.03 0.09,-0.01 0.14,-0.03l0.01 -0.01c0.06,0.02 0.09,0.04 0.14,0.08 0.07,0.06 0.29,0.16 0.37,0.21 0,-0.03 0.01,-0.05 0.02,-0.07 -0.01,0.02 -0.02,0.04 -0.02,0.06 0.04,0.01 0.07,0.01 0.12,0.01 0.06,0 0.07,0.01 0.12,0.03 0.06,0.02 0.05,0.01 0.09,-0.03 0.02,-0.02 0.04,-0.03 0.05,-0.03 0,0 -0.01,0 -0.02,0.01l-0.04 0.03c-0.01,0.01 -0.02,0.02 -0.02,0.03 0.04,-0.01 0.07,-0.01 0.1,0 0.05,0.04 0.05,0.06 0.07,0.13 0.02,0.05 0.03,0.07 0.07,0.11l0.02 0.01c0,0.01 0.01,0.01 0.01,0.01l0 0c0.03,0.03 0.04,0.04 0.08,0.06 0.05,0.01 0.09,0.02 0.13,0.05l0 0.02c0.01,0.05 0.01,0.1 0.05,0.14 0.09,0.08 0.17,0.14 0.28,0.19 0.05,0.02 0.1,0.04 0.15,0.03 0.03,-0.01 0.06,-0.02 0.09,-0.03 0.05,-0.02 0.1,-0.03 0.14,-0.06 0.03,-0.03 0.07,-0.07 0.11,-0.09 0.04,-0.02 0.09,-0.04 0.12,-0.07 0.18,-0.15 0.31,-0.31 0.45,-0.51 0.01,-0.03 0.02,-0.06 0.02,-0.09l0.03 -0.03 0.08 -0.06 0.17 0 0.28 -0.28 0.06 -0.05 0.06 0 0.21 -0.33 0 -0.15zm2.17 -4.3c0,0 0,0 0,0 0,0 0,0 0,0zm0 0c0.01,0 0.01,0 0.01,0 0,0 0,0 -0.01,0zm0.01 0c0,0 0,0 0,0 0,0 0,0 0,0zm-4.68 5.55c0,0 0,0 0,0 0,0 0,0 0,0zm0 0c0,-0.01 0,-0.01 0,-0.01 0,0 0,0 0,0.01zm0.01 -0.01c0,-0.01 0,-0.01 0,-0.01 0,0 0,0 0,0.01zm-2.2 -1.55c-0.01,0 -0.03,0 -0.04,-0.01 0.01,0.01 0.03,0.01 0.04,0.01zm-3.51 -3.01c0,0 0,0.01 0,0.01 0,0 0,-0.01 0,-0.01zm-0.01 0.02c0,0.01 0,0.01 0,0.01 0,0 0,0 0,-0.01zm0 0.02c0,0 0,0 0,0 0,0 0,0 0,0z">
    <metadata id="CorelCorpID_1">
     <odm name="Nombre" value="(60) Santa Isabel Xiloxoxtla" type="0"/>
    </metadata>
   </path>
   <polygon class="fil1" points="0.88,5.01 1.48,5.01 1.48,60.4 0.88,59.95 "/>
   <polygon class="fil1" points="44.13,5.01 43.53,5.01 43.53,60.4 44.13,59.95 "/>
   <g transform="matrix(0.709331 0 0 1 -132.698 -295.275)">
    <text x="187" y="298.36"  class="fil4 fnt0">UNIVERSIDAD AUTÓNOMA DE TLAXCALA</text>
   </g>
   <text x="12.03" y="58.29"  class="fil3 fnt1">POR LA CULTURA</text>
   <path class="fil5" d="M10.42 61.2l-0.37 -0.16 0.04 -0.49 -0.65 -0.29 -0.33 0.35 -0.37 -0.16 1.44 -1.46 0.39 0.18 -0.15 2.03zm-0.29 -0.95l0.07 -0.73c0.01,-0.03 0.02,-0.08 0.04,-0.16l-0.01 0c-0.03,0.05 -0.06,0.09 -0.09,0.13l-0.5 0.53 0.49 0.23zm2.43 1.66l-1.02 -0.4 0.71 -1.79 0.34 0.14 -0.59 1.5 0.68 0.27 -0.12 0.28zm1.88 0.59l-0.39 -0.12 -0.02 -0.48 -0.7 -0.2 -0.27 0.4 -0.39 -0.11 1.21 -1.65 0.41 0.12 0.15 2.04zm-0.42 -0.91l-0.04 -0.73c0,-0.03 0.01,-0.08 0.02,-0.16l-0.01 0c-0.02,0.05 -0.05,0.1 -0.07,0.14l-0.42 0.6 0.52 0.15zm2.46 0.56c-0.06,0.24 -0.16,0.42 -0.3,0.52 -0.14,0.1 -0.31,0.13 -0.51,0.08 -0.08,-0.02 -0.16,-0.05 -0.23,-0.1l0.08 -0.34c0.05,0.06 0.12,0.11 0.21,0.13 0.19,0.04 0.32,-0.09 0.39,-0.39l0.26 -1.14 0.36 0.09 -0.26 1.15zm1.9 0.28c-0.1,0.56 -0.4,0.79 -0.92,0.7 -0.49,-0.09 -0.69,-0.41 -0.6,-0.95l0.2 -1.11 0.37 0.07 -0.2 1.11c-0.06,0.33 0.04,0.51 0.31,0.56 0.26,0.05 0.41,-0.09 0.47,-0.41l0.2 -1.12 0.37 0.06 -0.2 1.09zm0.26 0.38c0.14,0.14 0.3,0.23 0.5,0.25 0.11,0.02 0.2,0.01 0.27,-0.02 0.06,-0.04 0.1,-0.09 0.1,-0.15 0.01,-0.06 -0.01,-0.12 -0.05,-0.17 -0.04,-0.06 -0.15,-0.14 -0.32,-0.24 -0.15,-0.09 -0.26,-0.18 -0.32,-0.28 -0.06,-0.1 -0.08,-0.21 -0.06,-0.33 0.02,-0.17 0.1,-0.29 0.25,-0.37 0.14,-0.08 0.32,-0.11 0.54,-0.08 0.19,0.02 0.34,0.06 0.44,0.13l-0.04 0.35c-0.11,-0.1 -0.26,-0.16 -0.43,-0.18 -0.1,-0.02 -0.19,-0.01 -0.26,0.02 -0.07,0.03 -0.1,0.08 -0.11,0.15 -0.01,0.06 0.01,0.11 0.04,0.16 0.04,0.05 0.14,0.12 0.29,0.21 0.18,0.11 0.3,0.21 0.36,0.31 0.06,0.1 0.08,0.21 0.07,0.33 -0.03,0.18 -0.11,0.31 -0.25,0.39 -0.14,0.08 -0.33,0.1 -0.56,0.07 -0.21,-0.03 -0.38,-0.08 -0.51,-0.17l0.05 -0.38zm2.92 -0.9l-0.54 -0.04 -0.13 1.61 -0.37 -0.03 0.12 -1.61 -0.54 -0.04 0.02 -0.31 1.47 0.11 -0.03 0.31zm0.57 -0.28l-0.04 1.92 -0.38 -0.01 0.05 -1.92 0.37 0.01zm1.77 1.82c-0.14,0.08 -0.32,0.12 -0.54,0.12 -0.29,0.01 -0.52,-0.07 -0.69,-0.24 -0.17,-0.17 -0.26,-0.4 -0.27,-0.69 -0.01,-0.3 0.08,-0.55 0.26,-0.75 0.19,-0.19 0.43,-0.3 0.72,-0.3 0.19,-0.01 0.34,0.01 0.47,0.06l0.01 0.36c-0.13,-0.07 -0.28,-0.11 -0.45,-0.1 -0.19,0 -0.34,0.07 -0.46,0.2 -0.11,0.13 -0.17,0.29 -0.16,0.5 0,0.2 0.06,0.35 0.18,0.47 0.11,0.12 0.26,0.17 0.45,0.17 0.17,-0.01 0.33,-0.05 0.47,-0.14l0.01 0.34zm0.57 -1.87l0.15 1.91 -0.37 0.03 -0.15 -1.91 0.37 -0.03zm2.23 1.76l-0.4 0.03 -0.19 -0.44 -0.72 0.05 -0.12 0.47 -0.4 0.03 0.56 -1.97 0.43 -0.03 0.84 1.86zm-0.71 -0.7l-0.29 -0.67c-0.01,-0.03 -0.02,-0.08 -0.04,-0.16l-0.01 0c0,0.06 -0.01,0.11 -0.02,0.16l-0.18 0.71 0.54 -0.04zm1.71 0.1c0.17,0.1 0.35,0.13 0.55,0.1 0.11,-0.02 0.2,-0.06 0.25,-0.11 0.05,-0.05 0.07,-0.11 0.05,-0.17 -0.01,-0.06 -0.04,-0.11 -0.1,-0.15 -0.05,-0.04 -0.18,-0.08 -0.38,-0.13 -0.17,-0.04 -0.29,-0.1 -0.38,-0.17 -0.09,-0.08 -0.14,-0.17 -0.16,-0.29 -0.03,-0.17 0.01,-0.32 0.12,-0.44 0.12,-0.12 0.28,-0.2 0.5,-0.24 0.19,-0.03 0.34,-0.03 0.46,0l0.07 0.35c-0.14,-0.07 -0.3,-0.08 -0.47,-0.05 -0.1,0.02 -0.18,0.05 -0.24,0.1 -0.05,0.05 -0.07,0.11 -0.06,0.18 0.01,0.05 0.04,0.1 0.09,0.13 0.05,0.04 0.16,0.08 0.34,0.12 0.2,0.05 0.34,0.11 0.43,0.19 0.08,0.07 0.14,0.17 0.16,0.3 0.03,0.17 -0.01,0.32 -0.12,0.44 -0.11,0.11 -0.28,0.19 -0.51,0.23 -0.21,0.04 -0.39,0.04 -0.53,-0.01l-0.07 -0.38zm1.32 -0.7c-0.07,-0.29 -0.04,-0.55 0.09,-0.77 0.13,-0.22 0.33,-0.37 0.61,-0.43 0.27,-0.06 0.5,-0.02 0.7,0.12 0.21,0.14 0.34,0.34 0.4,0.62 0.07,0.3 0.04,0.55 -0.08,0.77 -0.13,0.22 -0.33,0.36 -0.6,0.43 -0.27,0.06 -0.51,0.02 -0.71,-0.12 -0.21,-0.14 -0.35,-0.34 -0.41,-0.62zm0.38 -0.11c0.04,0.19 0.12,0.34 0.25,0.44 0.12,0.1 0.26,0.13 0.42,0.09 0.17,-0.04 0.28,-0.12 0.35,-0.26 0.06,-0.14 0.07,-0.31 0.03,-0.5 -0.05,-0.21 -0.13,-0.36 -0.25,-0.46 -0.11,-0.09 -0.25,-0.12 -0.42,-0.08 -0.17,0.03 -0.28,0.13 -0.35,0.27 -0.07,0.15 -0.08,0.31 -0.03,0.5zm3.25 0.09c-0.11,0.11 -0.28,0.19 -0.49,0.25 -0.28,0.08 -0.52,0.06 -0.73,-0.06 -0.21,-0.12 -0.35,-0.32 -0.43,-0.6 -0.08,-0.29 -0.06,-0.56 0.07,-0.79 0.13,-0.24 0.33,-0.4 0.62,-0.48 0.18,-0.05 0.33,-0.07 0.47,-0.06l0.1 0.35c-0.15,-0.03 -0.3,-0.03 -0.46,0.02 -0.19,0.05 -0.32,0.15 -0.4,0.3 -0.08,0.16 -0.09,0.33 -0.03,0.53 0.05,0.19 0.15,0.33 0.29,0.41 0.14,0.08 0.3,0.1 0.48,0.05 0.16,-0.05 0.3,-0.13 0.42,-0.25l0.09 0.33zm0.1 -1.99l0.62 1.82 -0.36 0.12 -0.61 -1.82 0.35 -0.12zm2.55 1.01l-0.38 0.15 -0.31 -0.37 -0.67 0.26 0.03 0.49 -0.38 0.15 -0.04 -2.05 0.4 -0.16 1.35 1.53zm-0.88 -0.46l-0.48 -0.56c-0.02,-0.02 -0.04,-0.07 -0.08,-0.14l-0.01 0c0.01,0.06 0.02,0.11 0.03,0.16l0.03 0.74 0.51 -0.2zm2.11 -0.05l-1 0.46 -0.79 -1.75 0.34 -0.16 0.66 1.47 0.66 -0.3 0.13 0.28z"/>
   <path id="Amaxac_0" class="fil3" d="M24.36 15.81l0 -0.01c0.01,-0.05 0.02,0 0.1,0 0.04,0.01 0.08,0.01 0.13,0.03 0.06,0.02 0.12,0.04 0.19,0.05 0.03,0.01 0.06,0.01 0.09,0.01 0.05,0.01 0.1,0.02 0.15,0.06l0.02 -0.03 -0.02 0.03 0.01 0c0.05,0 0.09,0.01 0.14,0.03 0.02,0.01 0.04,0.03 0.05,0.04 0.03,0.03 0.05,0.04 0.09,0.05 0.04,0.01 0.09,0.01 0.14,0.01 0,0.02 0,0.04 0,0.07 0,0.02 0,0.03 0.02,0.05 0.02,0.04 0.04,0.04 0.09,0.07 0.03,0.01 0.05,0.03 0.07,0.06 0.03,0.02 0.06,0.05 0.08,0.09 0.02,0.03 0.02,0.06 0.02,0.09 0.01,0.03 0.01,0.05 0.03,0.07 0.01,0.02 0.03,0.03 0.05,0.04 0.03,0 0.05,-0.03 0.08,-0.05 0.02,-0.01 0.04,-0.03 0.06,-0.04 0.04,-0.03 0.09,-0.05 0.14,-0.06l0 -0.18c0.07,-0.03 0.12,-0.07 0.17,-0.11 0.05,-0.04 0.11,-0.06 0.17,-0.08 0.06,-0.01 0.11,-0.05 0.16,-0.08 0.04,-0.02 0.07,-0.02 0.11,-0.03 0.06,0 0.14,-0.09 0.19,-0.15 0.04,-0.04 0.11,-0.03 0.17,-0.04 -0.07,-0.07 -0.13,-0.13 -0.2,-0.19 -0.04,-0.03 -0.07,-0.06 -0.1,-0.09 -0.03,-0.02 -0.04,-0.03 -0.06,-0.03 0,0 0.01,0 0.01,0 -0.02,-0.05 0,-0.1 0.05,-0.13 0.01,0.01 0.01,0.01 0.03,0.01 0.05,0 0.07,0.01 0.13,-0.03 0.03,-0.02 0.06,-0.05 0.08,-0.08 0.01,-0.02 0.02,-0.05 0.03,-0.09 0.01,-0.03 0.02,-0.05 0.05,-0.09 0.04,-0.04 0.06,-0.07 0.07,-0.13 0.02,-0.05 0.03,-0.1 0.05,-0.14 0.01,0 0.01,0.01 0.01,0.01 0.01,0.02 0.07,0.02 0.11,0.02 0.03,0 0.06,0 0.09,0.01 0.04,0.01 0.09,0.01 0.14,0.01 0.03,0 0.07,0.03 0.1,0.06 0.03,0.02 0.05,0.04 0.07,0.06 0.03,0.02 0.05,0.02 0.08,0.02 0.04,0 0.04,0.03 0.04,0.05 0,0.03 -0.03,0.05 -0.05,0.07 -0.02,0.02 -0.05,0.05 -0.07,0.08 -0.02,0.04 -0.01,0.06 0.02,0.08 0.03,0.03 0.07,0.01 0.11,0 0.06,-0.02 0.1,-0.05 0.15,-0.08 0.04,-0.02 0.11,-0.01 0.16,-0.01 0.04,0 0.09,0.02 0.13,0.04 0.02,0.02 0.04,0.02 0.07,0.01 0.03,-0.01 0.03,-0.03 0.02,-0.05 -0.03,-0.17 0,-0.17 0.1,-0.29 0.04,-0.04 0.07,-0.07 0.13,-0.09 0.03,-0.01 0.07,-0.01 0.13,-0.01 0.06,0 0.11,0.03 0.17,0.07l0 -0.01c0.04,0.02 0.07,0.02 0.11,0.01 0.04,0 0.06,0 0.1,-0.03 0.02,-0.01 0.03,-0.03 0.05,-0.07l0.02 -0.04c0.01,-0.03 0.03,-0.03 0.06,-0.03 0.03,0 0.05,0.01 0.07,0.02 0.05,0.01 0.05,-0.01 0.1,-0.03 0.06,-0.03 0.11,-0.02 0.2,0 0.03,0 0.03,-0.02 0.05,-0.05 0.02,-0.04 0.04,-0.08 0.07,-0.12 0.01,-0.02 0.03,-0.04 0.05,-0.07 0.03,-0.03 0.02,-0.1 0.02,-0.15 0,-0.02 -0.03,-0.03 -0.05,-0.03 -0.04,-0.02 -0.04,-0.07 -0.04,-0.1 0.01,-0.03 0.03,-0.04 0.05,-0.06 0.03,-0.02 0.04,-0.07 0.03,-0.1 -0.01,-0.05 -0.02,-0.04 -0.07,-0.05 -0.04,-0.01 -0.08,0.01 -0.12,0.02 -0.02,0.01 -0.05,0.02 -0.07,0.02 -0.04,0.01 -0.04,-0.02 -0.06,-0.05 -0.01,-0.03 -0.05,-0.03 -0.09,-0.04 -0.03,0 -0.07,-0.02 -0.11,-0.03 -0.03,-0.01 -0.03,-0.03 -0.04,-0.05 -0.02,-0.03 -0.03,-0.06 -0.03,-0.09 -0.02,-0.05 -0.04,-0.08 -0.06,-0.12 -0.03,-0.04 -0.06,-0.03 -0.1,-0.03 -0.03,0 -0.04,-0.01 -0.07,-0.03 -0.04,-0.03 -0.1,-0.02 -0.14,0 -0.02,0.01 -0.04,0.02 -0.05,0.04 -0.01,-0.01 -0.04,0.01 -0.07,0.02 -0.03,0.02 -0.08,0.01 -0.12,0l-0.13 -0.02 -0.03 0c0,-0.03 0,-0.06 -0.01,-0.11 -0.06,-0.11 -0.08,-0.12 -0.18,-0.19 -0.04,-0.03 -0.15,-0.09 -0.15,-0.13 -0.01,-0.04 -0.01,-0.06 0.02,-0.1 0.04,-0.05 0.09,-0.11 0.11,-0.17 0.03,-0.09 0.03,-0.14 0,-0.26 -0.04,-0.11 -0.08,-0.14 -0.16,-0.21 -0.05,-0.04 -0.11,-0.07 -0.15,-0.13 -0.03,-0.02 -0.04,-0.05 -0.07,-0.07 -0.03,-0.03 -0.07,-0.06 -0.1,-0.08 -0.04,-0.02 -0.09,-0.04 -0.14,-0.04 -0.05,0.01 -0.1,0.01 -0.15,0.03 -0.05,0.01 -0.12,0.04 -0.14,0.07 -0.01,0.03 -0.03,0.05 -0.03,0.08 -0.01,0.05 0,0.08 -0.06,0.1 -0.05,0.03 -0.1,0.07 -0.16,0.07 -0.06,0 -0.12,-0.01 -0.18,-0.03l0.01 0c-0.03,-0.06 -0.06,-0.12 -0.1,-0.17 -0.04,-0.05 -0.09,-0.08 -0.14,-0.1 -0.07,-0.02 -0.08,-0.03 -0.1,-0.07 -0.03,-0.05 -0.03,-0.05 -0.09,-0.08 -0.05,-0.02 -0.07,-0.04 -0.1,-0.09 -0.03,-0.06 -0.02,-0.1 0.01,-0.13 0.03,-0.02 0.05,-0.03 0.08,-0.03 0.06,-0.02 0.09,-0.06 0.13,-0.11 0,-0.08 0,-0.11 -0.03,-0.18 0,-0.01 0.01,-0.02 0,-0.03l0 -0.15c-0.01,-0.05 -0.05,-0.09 -0.08,-0.13 -0.03,-0.04 -0.04,-0.06 -0.1,-0.07 -0.06,-0.01 -0.13,-0.03 -0.19,-0.06 -0.06,-0.03 -0.15,-0.07 -0.16,-0.1 -0.03,-0.06 -0.06,-0.15 -0.12,-0.13 -0.04,0.01 -0.07,0.02 -0.11,0.02 -0.07,0.02 -0.15,0.03 -0.22,0.04 -0.04,0.01 -0.07,0 -0.1,-0.02 -0.05,-0.03 -0.08,-0.08 -0.1,-0.13 -0.02,-0.04 -0.04,-0.07 -0.06,-0.11 0,0.05 0,0.1 -0.01,0.14 0.01,-0.07 0.02,-0.16 -0.01,-0.2 -0.03,-0.03 -0.06,-0.06 -0.07,-0.09 -0.01,-0.04 0,-0.08 0.01,-0.13 0,-0.04 0.01,-0.06 -0.01,-0.1 -0.01,-0.02 -0.03,-0.05 -0.07,-0.06 -0.07,-0.03 -0.14,-0.02 -0.18,-0.03 -0.02,-0.02 -0.02,-0.03 0.03,-0.06 0.03,-0.02 0.04,-0.03 0.03,-0.07 -0.02,-0.04 -0.07,-0.08 -0.13,-0.1 -0.03,-0.01 -0.03,-0.01 -0.05,-0.04 -0.04,-0.04 -0.06,-0.07 -0.12,-0.11 -0.04,-0.03 -0.09,-0.06 -0.13,-0.08 -0.05,-0.03 -0.12,-0.04 -0.19,-0.04 -0.03,0 -0.05,0.01 -0.07,-0.01 -0.02,-0.02 -0.03,-0.04 -0.03,-0.07 -0.01,-0.04 0,-0.05 -0.03,-0.08 -0.02,-0.01 -0.04,-0.03 -0.04,-0.07 -0.01,-0.05 -0.01,-0.09 -0.05,-0.13 -0.04,-0.06 -0.08,-0.11 -0.12,-0.16 -0.07,-0.12 -0.04,-0.18 -0.09,-0.22 -0.03,-0.03 -0.05,-0.04 -0.1,-0.01 -0.04,0.02 -0.09,0.05 -0.11,0.11 -0.02,0.06 -0.05,0.13 -0.05,0.19 0,0.07 0.01,0.15 -0.04,0.19 -0.02,0.02 -0.04,0.03 -0.06,0.05 -0.03,0.03 -0.11,0.08 -0.16,0.07 -0.02,0 -0.06,-0.01 -0.08,0.01 -0.03,0.02 -0.05,0.05 -0.08,0.04 -0.07,-0.01 -0.1,-0.02 -0.17,-0.02 -0.09,0.01 -0.21,0.01 -0.26,0.05 -0.04,0.03 -0.08,0.06 -0.13,0.09 -0.05,0.04 -0.1,0.09 -0.16,0.09 -0.06,-0.01 -0.11,-0.01 -0.17,-0.02 -0.04,0 -0.1,0.01 -0.14,0.05 -0.04,0.02 -0.06,0.04 -0.09,0.01 -0.02,-0.03 -0.05,-0.06 -0.08,-0.08 -0.05,-0.04 -0.1,-0.07 -0.15,-0.1 -0.03,-0.02 -0.07,-0.05 -0.1,-0.05 -0.07,-0.01 -0.12,0.02 -0.15,0.06 -0.07,0.05 -0.09,0.1 -0.15,0.04 -0.07,-0.06 -0.14,-0.14 -0.16,-0.22 -0.01,-0.06 -0.01,-0.13 -0.06,-0.18 -0.03,-0.03 -0.09,-0.05 -0.22,-0.08 -0.15,-0.03 -0.29,-0.08 -0.44,-0.15 -0.09,-0.04 -0.18,-0.09 -0.26,-0.08 -0.07,0.02 -0.15,0.03 -0.2,0.07 -0.06,0.06 -0.1,0.07 -0.08,0.16 0.02,0.05 0.01,0.11 0,0.17 0,0.1 0.06,0.19 0.06,0.29l0 0.15c-0.05,0.06 -0.07,0.05 -0.09,0.13 -0.03,0.13 -0.09,0.17 -0.2,0.3 -0.11,0.13 -0.22,0.26 -0.34,0.38l0 0c-0.1,-0.05 -0.23,-0.08 -0.33,-0.07l0 0c-0.1,0.01 -0.16,0.01 -0.25,0.02 -0.13,-0.01 -0.2,-0.02 -0.31,-0.05 -0.07,-0.02 -0.09,0.03 -0.17,0.04 -0.06,0 -0.09,-0.01 -0.15,-0.01 -0.04,-0.01 -0.07,0 -0.1,0.02 -0.04,0.03 -0.07,0.06 -0.09,0.09l0 0c-0.08,0.05 -0.11,0.05 -0.2,0.07 -0.17,-0.01 -0.15,-0.03 -0.24,-0.16 -0.03,-0.11 -0.05,-0.14 -0.12,-0.23 -0.1,-0.09 -0.08,-0.1 -0.22,-0.1l-0.09 0.01c-0.13,-0.01 -0.22,-0.01 -0.33,0.01 -0.06,0.05 -0.07,0.15 -0.12,0.21l-0.07 0.07 -0.08 0.09c-0.14,0.13 -0.26,0.11 -0.46,0.1 -0.1,-0.03 -0.17,-0.03 -0.28,-0.04 -0.09,0.04 -0.11,0.03 -0.21,0 -0.13,-0.08 -0.27,-0.12 -0.41,-0.14 -0.12,-0.04 -0.11,-0.12 -0.13,0.02l-0.03 0.05c0.02,0.04 0.04,0.09 0.08,0.12l0.07 0.05 0.08 0.06c0.03,0.03 0.03,0.07 0.02,0.11 -0.01,0.03 -0.02,0.03 -0.04,0.06 -0.05,0.04 -0.08,0.07 -0.1,0.12 -0.06,0.08 -0.16,0.09 -0.12,0.18l0.16 0.2c0.03,0.02 0.06,0.03 0.09,0.04 0.07,0.02 0.02,0.07 -0.02,0.1 -0.04,0.03 -0.06,0.06 -0.08,0.1 -0.02,0.04 -0.02,0.03 0,0.07l0.04 0.06 0.1 0.08 0.11 0.07 0.01 0.19c0.05,0.21 0.13,0.34 0.29,0.49 0.05,0.03 0.08,0.03 0.09,-0.07l0.13 0c0.02,-0.04 0.04,-0.06 0.05,-0.1 0,0.01 0,0.01 0,0.02 0.03,-0.02 0.05,-0.03 0.07,-0.04 0.06,-0.07 0.06,-0.11 0.16,-0.12 0.13,0 0.17,0 0.28,0.06 0.07,0.01 0.13,0.01 0.2,0.02 0.06,0 0.06,-0.01 0.08,0.04l0.01 0.04c0.02,0.04 0.02,0.05 0.07,0.05 0.04,0 0.08,0 0.12,0 0.04,-0.01 0.04,-0.01 0.08,0.01 0.08,0.02 0.1,0.01 0.17,-0.08l0.07 0 -0.01 0c0.03,0.04 0.03,0.07 0.04,0.12 0,0.03 0.01,0.05 0.01,0.08 0.02,0.07 0.03,0.07 0.11,0.1 0.05,0.03 0.05,0.02 0.07,0.07 0.01,0.04 0.02,0.07 0.03,0.11l0 0c0,0.02 -0.01,0.05 -0.01,0.07 0,0.13 0.01,0.17 0.06,0.3 0.05,0.09 0.07,0.14 0.16,0.19 0.05,0.04 0.09,0.05 0.19,0.06 0.05,0 0.07,0 0.1,0.01l0.06 0.09c0.08,0.1 0.13,0.15 0.25,0.2 0.05,0.04 0.08,0.05 0.1,0.12 0.03,0.09 0.04,0.12 0.03,0.18 -0.01,0.07 -0.02,0.13 -0.02,0.2l-0.01 0.1c0.01,0.06 0.04,0.05 0.1,0.02 0.06,-0.03 0.08,-0.04 0.11,-0.01 0.04,0.04 0.07,0.03 0.13,0.04l0.1 0c0.01,0 0.02,0 0.03,0l0 0.2c0,0.07 0,0.1 0.03,0.15 0.02,0.06 0.06,0.1 0.1,0.14l0.11 0.1c0.09,0.1 0.17,0.19 0.26,0.28 0.02,0.02 0.03,0.03 0.04,0.04l0.03 0.05c0.03,0.03 0.07,0.06 0.1,0.09 0.04,0.05 0.05,0.11 0.05,0.16 0,0.06 0.04,0.08 0.08,0.12 0.11,0.09 0.21,0.19 0.32,0.28 0.06,0.04 0.08,0.05 0.08,0.08 0,0.05 -0.02,0.11 -0.04,0.17 -0.02,0.04 -0.02,0.06 -0.01,0.07 0.02,0.02 0.05,0.02 0.07,0.02 0.05,0 0.07,0.04 0.09,0.07 0.05,0.06 0.09,-0.02 0.13,-0.08 0.03,-0.05 0.06,-0.03 0.09,0 0.05,0.03 0.1,-0.01 0.15,-0.03l0.01 -0.01c0.06,0.02 0.09,0.04 0.13,0.08 0.08,0.06 0.29,0.16 0.37,0.21 0.01,-0.03 0.02,-0.05 0.02,-0.07 0,0.02 -0.01,0.04 -0.01,0.06 0.04,0.01 0.07,0.01 0.12,0.01 0.06,0 0.07,0.01 0.12,0.03 0.06,0.02 0.05,0.01 0.09,-0.03 0.02,-0.02 0.04,-0.03 0.05,-0.03 -0.01,0 -0.02,0 -0.03,0.01l-0.03 0.03c-0.01,0.01 -0.02,0.02 -0.03,0.03 0.04,-0.01 0.07,-0.01 0.11,0 0.05,0.04 0.05,0.06 0.06,0.13 0.03,0.05 0.04,0.07 0.08,0.11l0.01 0.01c0.01,0.01 0.01,0.01 0.02,0.01l0 0c0.03,0.03 0.04,0.04 0.08,0.06 0.05,0.01 0.09,0.02 0.13,0.05l0 0.02c0.01,0.05 0.01,0.1 0.04,0.14 0.1,0.08 0.18,0.14 0.29,0.19 0.05,0.02 0.09,0.04 0.14,0.03 0.04,-0.01 0.07,-0.02 0.1,-0.03 0.04,-0.02 0.1,-0.03 0.14,-0.06 0.03,-0.03 0.07,-0.07 0.11,-0.09 0.04,-0.02 0.09,-0.04 0.12,-0.07 0.18,-0.15 0.31,-0.31 0.45,-0.51 0,-0.03 0.02,-0.06 0.02,-0.09l0.03 -0.03 0.08 -0.06 0.17 0 0.27 -0.28 0.06 -0.05 0.06 0 0.22 -0.33 0 -0.15zm-0.88 39.1c-0.62,0.65 -1.72,0.57 -2.2,0l-4.83 0 0 -0.87 5.29 0c0.17,0.43 1.19,0.4 1.29,0l5.49 0 0 0.87 -5.04 0zm5.49 -9.22c4.57,-2.46 6.78,-6.89 7.21,-14.62 -1.05,-1.62 -1.63,-1.89 -1.94,-4.16l-1.64 -2.56c0.06,-0.25 0.31,-0.28 0.76,-0.08 1.02,1.3 2.4,3.13 2.91,3.09l0.24 -1.65c-0.3,-0.58 -0.4,-1.24 -0.41,-1.93 -0.22,-0.29 -0.42,-0.67 -0.59,-1.19 -0.61,-0.37 -1.22,-0.83 -1.83,-1.31 -0.09,-0.16 -0.03,-0.3 0.18,-0.41l2.82 1.28c0.53,1.37 1.22,2.41 2.14,3.26 0.28,1.58 0.84,2.39 1.3,3.22 0.19,0.34 -0.11,1.23 -0.19,1.58 -0.72,2.96 -0.37,4.42 0.28,6.78 0.79,2.86 -0.78,6.8 -2.68,8.69 1.45,-3.01 -0.17,-3.48 -0.68,-0.92 -0.11,0.58 -0.57,1.48 -0.85,2.17 -0.59,1.42 -1.6,2.3 -2.77,3.12 1.37,-2.26 0.81,-2.95 0.07,-2.19 -0.33,0.35 -0.59,1.32 -0.99,1.86 -0.61,0.92 -1.65,2.04 -2.48,2.62l-0.86 -6.65zm-5.57 -21.1c0.17,0.06 0.59,0.89 0.59,1.54 0,0.75 -0.31,1.4 -0.75,1.67l0 0 0.01 4.47c5.55,-0.94 7.59,-5.02 6.2,-13.85l1.94 -0.23 2.47 19.73 -2.52 0.1 -0.31 -8.09 -0.08 0.01 -0.23 7.98 -1.94 -0.04 -0.3 -4.76 -0.3 -0.02 -0.15 4.82 -2.02 0.1 -1.24 -3.1 -0.22 -0.01 0.75 3.15 -0.75 0.09 -0.94 -3.12 -0.12 -0.02 1.3 10.14 -4.61 -0.04 1.3 -10.1 -0.12 0.02 -0.94 3.12 -0.75 -0.09 0.75 -3.15 -0.22 0.01 -1.23 3.1 -2.03 -0.1 -0.15 -4.82 -0.29 0.02 -0.31 4.76 -1.94 0.04 -0.23 -7.98 -0.08 -0.01 -0.31 8.09 -2.52 -0.1 2.47 -19.73 1.95 0.23c-1.4,8.83 0.6,12.88 6.15,13.82l0.43 -2.27 -0.62 -0.06c0.23,-0.62 0.51,-1.72 0.63,-2.22 -0.36,-0.31 -0.61,-0.89 -0.61,-1.56 0,-0.7 0.28,-1.31 0.68,-1.61l0.37 -5.05 0.45 0 0.39 5.12zm-7.4 21.1c-4.57,-2.46 -6.78,-6.89 -7.21,-14.62 1.05,-1.62 1.63,-1.89 1.94,-4.16l1.64 -2.56c-0.06,-0.25 -0.31,-0.28 -0.76,-0.08 -1.02,1.3 -2.39,3.13 -2.91,3.09l-0.24 -1.65c0.3,-0.58 0.4,-1.24 0.41,-1.93 0.22,-0.29 0.42,-0.67 0.59,-1.19 0.61,-0.37 1.22,-0.83 1.83,-1.31 0.09,-0.16 0.03,-0.3 -0.18,-0.41l-2.82 1.28c-0.53,1.37 -1.22,2.41 -2.14,3.26 -0.28,1.58 -0.84,2.39 -1.3,3.22 -0.19,0.34 0.11,1.23 0.19,1.58 0.72,2.96 0.38,4.42 -0.28,6.78 -0.79,2.86 0.78,6.8 2.68,8.69 -1.45,-3.01 0.17,-3.48 0.68,-0.92 0.11,0.58 0.57,1.48 0.85,2.17 0.59,1.42 1.6,2.3 2.77,3.12 -1.37,-2.26 -0.81,-2.95 -0.07,-2.19 0.33,0.35 0.6,1.32 0.99,1.86 0.62,0.92 1.65,2.04 2.48,2.62l0.86 -6.65zm6.01 7.36l0 -7.21c-1.34,-0.79 -3.6,1.07 -5.31,0.27l-0.86 7.11c2.53,0.87 4.6,-2.03 6.17,-0.17zm0.7 0l0 -7.21c1.35,-0.79 3.61,1.07 5.32,0.27l0.86 7.11c-2.54,0.87 -4.61,-2.03 -6.18,-0.17zm3.82 -41.54c0,0 0,0 0,0 0,0 0,0 0,0zm0 0c0,0 0,0 0,0 0,0 0,0 0,0zm0 0c0.01,0 0.01,0 0.01,0 0,0 0,0 -0.01,0zm-4.67 5.55c0,0 0,0 0,0 0,0 0,0 0,0zm0 0c0,-0.01 0,-0.01 0,-0.01 0,0 0,0 0,0.01zm0 -0.01c0,-0.01 0,-0.01 0.01,-0.01 -0.01,0 -0.01,0 -0.01,0.01zm-2.19 -1.55c-0.02,0 -0.03,0 -0.04,-0.01 0.01,0.01 0.02,0.01 0.04,0.01zm-3.51 -3.01c-0.01,0 -0.01,0.01 -0.01,0.01 0,0 0,-0.01 0.01,-0.01zm-0.01 0.02c0,0.01 0,0.01 0,0.01 0,0 0,0 0,-0.01zm-0.01 0.02c0,0 0,0 0,0 0,0 0,0 0,0z">
    <metadata id="CorelCorpID_2">
     <odm name="Nombre" value="(60) Santa Isabel Xiloxoxtla" type="0"/>
    </metadata>
   </path>
   <polygon class="fil1" points="0.88,5.01 1.48,5.01 1.48,60.4 0.88,59.95 "/>
   <polygon class="fil1" points="44.13,5.01 43.53,5.01 43.53,60.4 44.13,59.95 "/>
  </g>
 </g>
</svg>
